<?xml version="1.0" encoding="utf-8"?>
<!-- Generator: Adobe Illustrator 22.1.0, SVG Export Plug-In . SVG Version: 6.00 Build 0)  -->
<svg version="1.1" id="Camada_1" xmlns="http://www.w3.org/2000/svg" xmlns:xlink="http://www.w3.org/1999/xlink" x="0px" y="0px"
	 viewBox="0 0 256.3 237.9" style="enable-background:new 0 0 256.3 237.9;" xml:space="preserve">
<style type="text/css">
	.st0{fill:#E8AEA6;}
	.st1{fill:#2D0A7E;}
	.st2{fill:#C98455;}
	.st3{fill:#464391;}
	.st4{fill:#1D262D;}
	.st5{fill:#E2995F;}
	.st6{fill:#1D184C;}
	.st7{fill:#D1D1D1;}
	.st8{fill:#332777;}
	.st9{fill:#BC7D51;}
	.st10{fill:#8C72CC;}
</style>
<g>
	<ellipse class="st0" cx="144.1" cy="214.9" rx="96.8" ry="10.2"/>
	<path class="st0" d="M47.3,206.1c0,0.8-6.1,1.4-13.5,1.4s-13.5-0.6-13.5-1.4c0-0.8,6.1-1.4,13.5-1.4S47.3,205.3,47.3,206.1z"/>
	<path class="st0" d="M79.1,228.2c0,0.8-6.1,1.4-13.5,1.4c-7.5,0-13.5-0.6-13.5-1.4s6.1-1.4,13.5-1.4
		C73.1,226.8,79.1,227.4,79.1,228.2z"/>
	<path class="st1" d="M220.3,200.1c0,0,15.4,6,23.7,6.3c0,0,9.7-0.9-15.4-12.3c0,0-2.7,2.5-8.6,2L220.3,200.1z"/>
	<path class="st1" d="M176.3,212.8c0,0,16.4,2.6,24.5,1.1c0,0,10.6-2.1-16.4-7.9c0,0-4,0.4-10.4-1.3L176.3,212.8z"/>
	<path class="st2" d="M174.1,152.7c0,0,15.7,17.7,11.9,30.6c-3.7,12.9-11.9,21.4-11.9,21.4s5.9,2.9,11.4,1.7
		c0,0,17.2-14.1,15.3-47.1c0,0-8.9-8.6-19.8-10.1l-2.3,3.7L174.1,152.7z"/>
	<path class="st3" d="M178.6,153c0,0-8-2-25.4,4.6c-17.4,6.6-58.8,18-63.3-16.6c0,0,1.3-15.7-1.6-25.1l22,15.1c0,0,23.1,5.7,41.7,0
		c18.6-5.7,25.1-5.4,30-3.7C182,127.3,188,140.4,178.6,153z"/>
	<path class="st4" d="M125.5,17.8c0,0,4.9,16.9,0,26.9c0,0,1.4,22.9-22,19.1c0,0,2.6,10.9,6.6,11.4c0,0-32,9.7-45.7-14.9
		c0,0-4-8.6,0-14.6c4-6,9.1-5.1,9.1-5.1s-2.6-12.6,4.3-20.9C84.6,11.6,117.7-1,125.5,17.8z"/>
	<path class="st5" d="M121.2,23.8c0,0,11.6,30.4-3.4,37.7c-9.4,4.6-14.3,2.3-14.3,2.3s-2,9.4,2,17.1c0,0-6.3,6.9-13.1-4.3
		c0,0,3.7-10.6,2.6-18.3c0,0-2-2.9-2.6-6.9c0,0-4-6.6-1.7-10.3c2.3-3.7,6.6-2,7.1,0.9C97.7,42.1,113.5,44.4,121.2,23.8z"/>
	<polygon class="st6" points="119.2,132.6 163.8,127.8 178.3,83.1 174.1,83.1 161.2,123.3 119.2,128.1 	"/>
	<path class="st3" d="M92.3,76.7c0,0-11.1,1.1-10.6,12.3s3.7,17.4,3.7,17.4s6.9-5.4,16.3-5.4c0,0,3.4,22.3,8.6,30
		c0,0-1.1-14.9,0-22.6c0,0,8.9-4.3,6.3-12.3c-2.6-8-11.1-15.1-11.1-15.1S99.1,87.3,92.3,76.7z"/>
	<path class="st5" d="M117.1,144.7c0,0-18.5,10.3-31.6-38.3c0,0,6-6,16.3-5.4c0,0,4.6,24,8.6,30c4,6,17.7,3.1,19.4-1.4
		c1.7-4.6-1.4-11.7,3.7-14.3c5.1-2.6,10.3-3.1,11.4-0.3c1.1,2.9-2.6,6.9-5.4,8.3c-2.9,1.4-1.7,8.3-4,10.6
		C133.2,136.1,122.9,143.9,117.1,144.7z"/>
	<path class="st5" d="M180.9,149.3c0,0,13.9,1.5,24.8,15.5s14.3,31.4,14.3,31.4s6,0.9,8.6-2c0,0,0.3-50.4-45.7-64.4
		C182.9,129.8,185.9,138.5,180.9,149.3z"/>
	<path class="st7" d="M48.6,125.6c0,0-8.1-37.4,15.7-42.5c23.8-5.1,25.6,42.1,25.6,42.1s-7,50.7,58.8,33.9c0,0,17-4.7,20.4,9.8
		c3.4,14.6-4.6,22.6-14.6,25.1c-10,2.6-54.6,6.3-66.3,3.7C88.3,197.8,66.6,197,48.6,125.6z"/>
	<polygon class="st8" points="81.7,215.6 91.7,215.6 100.3,198.7 91,198.7 	"/>
	<polygon class="st8" points="163.7,215.6 153.7,215.6 143.7,195.9 152.3,194.9 	"/>
	<path class="st9" d="M123,41.3c0,0,1.7,3.6,4,5c2.3,1.4,0.1,4.6-1.4,4.3c-1.6-0.3-1.6-0.3-1.6-0.3L123,41.3z"/>
	<g>
		<path class="st9" d="M114.6,38.4c0.8,0.9,1.5,1.6,2.5,1.9c0.5,0.2,0.9,0.3,1.5,0.3c0.3,0,0.5,0,0.8,0c0.3,0,0.6,0,0.9,0
			c-0.2,0.2-0.5,0.3-0.8,0.5c-0.3,0.1-0.6,0.2-0.9,0.3c-0.6,0.1-1.2,0-1.8-0.2C115.5,40.8,114.7,39.6,114.6,38.4z"/>
	</g>
	<g>
		<path class="st9" d="M116.1,50.6c0.2,0.9,0.4,1.7,0.9,2.1c0.2,0.2,0.5,0.3,0.9,0.5l0.6,0.2c0.2,0,0.4,0.1,0.7,0.2
			c-0.2,0.1-0.4,0.2-0.6,0.3c-0.2,0.1-0.5,0.1-0.7,0.1c-0.5,0-1-0.1-1.5-0.5c-0.4-0.4-0.6-0.9-0.6-1.4
			C115.7,51.4,115.8,51,116.1,50.6z"/>
	</g>
	<g>
		<path class="st10" d="M41.8,205.6c0,0,8.1-13.1,0.7-20.1c-5.4-3.9-11.7,2.9-15.1-1c-3.4-3.9,12.3-16.8,7.2-23.4
			c-5.1-6.5-15.2-7-21.1-1.5c-5.9,5.6,3.6,36.7,11,45.9C24.4,205.6,34.1,206.7,41.8,205.6z"/>
		<g>
			<g>
				<path class="st1" d="M33.5,206.1c-3-3.4-5.7-7.1-7.9-11.1c-2.2-4-3.9-8.3-4.7-12.8c-0.4-2.3-0.3-4.6-0.1-6.9
					c0.4-2.2,0.7-4.5,1.4-6.7c0.6-2.2,1.4-4.3,2.4-6.4c1-2,2.2-4,3.9-5.5c-1.6,1.6-2.7,3.6-3.6,5.7c-0.9,2.1-1.6,4.2-2.2,6.4
					c-0.6,2.2-0.9,4.4-1.3,6.6c-0.2,2.2-0.3,4.5,0.2,6.7c0.7,4.4,2.3,8.7,4.4,12.7c1,2,2.2,3.9,3.5,5.8
					C30.8,202.5,32.1,204.4,33.5,206.1z"/>
			</g>
		</g>
	</g>
</g>
</svg>
