<?xml version="1.0" encoding="utf-8"?>
<!-- Generator: Adobe Illustrator 22.1.0, SVG Export Plug-In . SVG Version: 6.00 Build 0)  -->
<svg version="1.1" id="Camada_1" xmlns="http://www.w3.org/2000/svg" xmlns:xlink="http://www.w3.org/1999/xlink" x="0px" y="0px"
	 viewBox="0 0 256.3 237.9" style="enable-background:new 0 0 256.3 237.9;" xml:space="preserve">
<style type="text/css">
	.st0{fill:#E8AEA6;}
	.st1{fill:#8C72CC;}
	.st2{fill:#2D0A7E;}
	.st3{fill:#C0461D;}
	.st4{fill:#DB5C23;}
	.st5{fill:#1D184C;}
	.st6{fill:#F5D54F;}
	.st7{fill:#DBBF49;}
	.st8{fill:#1D262D;}
	.st9{fill:#E2995F;}
	.st10{fill:#332777;}
	.st11{fill:#D1D1D1;}
	.st12{fill:#464391;}
	.st13{fill:#BC7D51;}
</style>
<g>
	<path class="st0" d="M78,200.8c0,0.9-6.7,1.6-15,1.6s-15-0.7-15-1.6c0-0.9,6.7-1.6,15-1.6S78,199.9,78,200.8z"/>
	<g>
		<path class="st1" d="M60.1,201.2c0,0-13.3-14.5-17.1-23.2c-3.8-8.7,2.4-10.2,5.5-5.6c3.1,4.6,8.7,15,10.2,2.6
			c1.5-12.5-0.5-15.2,1.4-16.7c1.9-1.5,4.3-0.5,6,5.5c1.7,6,7.7,7.2,9.2,1.5c1.5-5.6,5.5-18.1,11.1-17.4c5.6,0.7-0.2,9.7,0,14.8
			c0.2,5.1,4.8,4.3,8.4-0.3c3.6-4.6,15.9-18.8,21.3-14.5c5.5,4.3-2.2,9.9,0,15.4c2.2,5.5,1.9,14.4-8.5,10.9
			c-10.4-3.4-9.7,6.3-10.2,8c-0.5,1.7-3.1,7.5-9.6,4.6c-6.5-2.9-10.1-1.5-7.7,0.9c2.4,2.4,6.7,4.9,4.4,6.3s-10.7-3.1-14.3-0.7
			c-3.6,2.4-4.9,8-4.9,8H60.1z"/>
		<g>
			<path class="st2" d="M111.3,160.3c-4.4,3.7-9.1,7.2-14.1,10.1c-1.3,0.7-2.5,1.4-3.9,2c-1.3,0.6-2.7,1-4.1,1.5l-8.2,2.7
				c-2.7,0.9-5.4,1.9-8,3.1c-2.6,1.2-5.1,2.7-6.9,4.9c-0.5,0.5-0.8,1.1-1.1,1.8c-0.3,0.6-0.5,1.3-0.6,2c-0.2,1.4-0.4,2.9-0.6,4.3
				c-0.3,2.9-0.6,5.7-0.5,8.6c-0.3-2.9-0.1-5.8,0.1-8.7c0.1-1.4,0.3-2.9,0.5-4.3c0.1-0.7,0.3-1.5,0.5-2.2c0.3-0.7,0.7-1.3,1.1-1.9
				c1.9-2.4,4.5-3.9,7.1-5.2c2.6-1.3,5.3-2.3,8.1-3.2l8.2-2.6c1.4-0.5,2.7-0.9,4-1.5c1.3-0.5,2.6-1.2,3.9-1.9c2.5-1.4,5-2.9,7.4-4.5
				C106.7,163.7,109,162,111.3,160.3z"/>
		</g>
	</g>
	<ellipse class="st0" cx="125.9" cy="216.4" rx="87.5" ry="9.2"/>
	<ellipse class="st0" cx="173.2" cy="229.4" rx="15" ry="1.6"/>
	<polygon class="st3" points="186.5,153.8 130.9,153.8 109.5,142 154.7,142 	"/>
	<path class="st4" d="M186.5,82.2v71.6h-7.4V151l-24.4-9.1V72.6C154.7,72.6,169.7,55.1,186.5,82.2z"/>
	<path class="st3" d="M179.1,80.9V151l-31.8-10.3V71.4C147.3,71.4,162.3,53.9,179.1,80.9z"/>
	<rect x="130.9" y="153.8" class="st4" width="55.6" height="9.4"/>
	<polygon class="st3" points="109.5,142 109.5,149.6 130.9,163.2 130.9,153.8 	"/>
	<rect x="109.5" y="149.7" class="st5" width="2.4" height="40"/>
	<path class="st6" d="M150.5,115.4c0,0-22,12.5-34.1,13.7c-12.1,1.2-9.6,23.9-10,27.9c-0.4,4-3,30-3,30s3.2,2.5,6.1,1.1
		c0,0,15.7-39.4,18.4-55c0,0,24.5-9.8,35.1-20.1C163.1,113.1,156.3,115.6,150.5,115.4z"/>
	<path class="st7" d="M166.3,111.6c0,0,15.6,18.4,0,32.5c-11.7,8.8-39.9,9.8-39.9,9.8s3.7,28.8-1.4,46.9c0,0-3,2.8-7.9,0.9
		c0,0-1.3-12.8-4.2-23c0,0,12.8-34.6,15-45.5c0,0,21.8-9,35.1-20.1C163.1,113.1,164.5,112.3,166.3,111.6z"/>
	<path class="st8" d="M132.2,23.2c0,0-21.4,6.3-6.8,32.5c2.8,6.1-1.7,10,0.9,18.4c2.6,8.4,12.6,27,38.3,16.3
		c25.6-10.7,24.2-27.6,20.2-34.8c-4-7.2-4.6-8.4-3.9-21.1c0.7-12.6-9.7-33.2-30.1-30.4C130.3,7.1,132.2,23.2,132.2,23.2z"/>
	<path class="st9" d="M130.8,36.2c0,0-1.4,28.8,18.1,27.4c19.5-1.4,19.8-15.6,19-16.9c0,0,6.1-4.9,0.3-10.5c-2.9-3-5.9,3-5.9,3
		s-15.3,5.8-28.3-7.7C133.9,31.5,133.1,34.6,130.8,36.2z"/>
	<path class="st9" d="M150.7,63.4c0,0,1.1,4.9,0,7.7c-1.1,2.8,2.4,6.8,6.1,2.8c3.7-4,3.2-6.7,3.2-6.7s-1-2.3-0.7-6.2
		C159.2,61.1,155.2,62.7,150.7,63.4z"/>
	<path class="st5" d="M106.7,118.4c0,0,26.7-0.2,30.9-23.9c4.2-23.7,13.1-23.4,13.1-23.4s-0.2,4,3.8,4.4c0,0-10.2,36.7-17.8,40.6
		c-7.6,3.9-22.3,7.6-28.6,7.6C108.1,123.7,105.5,121.1,106.7,118.4z"/>
	<path class="st10" d="M150.5,115.4c0,0,0-13.9-2.3-18c-2.3-4.1-5.3-9-2.6-16.1c2.6-7,5.2-10.2,5.2-10.2l9.2-3.9
		c0,0,5.8-1.4,9.8,1.1l-3.5,43.2C166.3,111.6,158.2,116.1,150.5,115.4z"/>
	<path class="st11" d="M51.7,128.7v4.7c0,1.7,19.9,3,44.5,3c24.6,0,44.5-1.3,44.5-3v-4.7H51.7z"/>
	<ellipse class="st2" cx="96.3" cy="128.7" rx="44.5" ry="3"/>
	<path class="st9" d="M106.7,118.4c0,0-5.9-1.1-7.6-0.9c-1.8,0.2-4.9,3.3-7.6,4.3c-2.7,1,1.1,3,5.4,2.3c4.3-0.7,6.9,0.5,11.3-0.4
		C108.1,123.7,105.8,121.5,106.7,118.4z"/>
	<path class="st5" d="M61.1,213.1v3.4c0,1.2,14.5,2.2,32.3,2.2c17.8,0,32.3-1,32.3-2.2v-3.4H61.1z"/>
	<polygon class="st5" points="59.2,95.3 71.1,127.8 109.6,127.8 97.7,95.3 	"/>
	<path class="st2" d="M125.7,213.1c0,1.2-14.5,2.2-32.3,2.2c-17.8,0-32.3-1-32.3-2.2s14.5-2.2,32.3-2.2
		C111.2,210.9,125.7,211.9,125.7,213.1z"/>
	<rect x="90.5" y="136.4" class="st11" width="5.7" height="75.5"/>
	<path class="st12" d="M103.4,187.1c0,0-5.8,8.9-10,11.8c-4.2,2.9-2.7,8.4,2.9,5c5.6-3.4,8.8-7.3,10.9-7.8c2.1-0.6,2.4-7.9,2.4-7.9
		S105.5,188.5,103.4,187.1z"/>
	<path class="st12" d="M118.5,202.1c0,0,2.2,2.2-2.5,4.5c-4.7,2.4-12.9,4.4-11.5,6.5c1.4,2,11.9-0.9,15-1.2c3.2-0.4,6.5-1.8,6.2-3.9
		c-0.4-2.1-0.7-7.2-0.7-7.2S123.3,203,118.5,202.1z"/>
	<polygon class="st5" points="109.6,127.8 134.9,127.8 134.9,126.2 109,126.2 	"/>
	<path class="st13" d="M139.7,45.9c0,0,0.4,3.7-0.5,5.9s0.9,4,2.2,3.7c1.3-0.3,1.7-0.9,1.7-0.9L139.7,45.9z"/>
	<path class="st12" d="M133.6,127.7c0,0,32.4-13.3,33.2-22.6c0.8-9.4-3.2-27.4-1.1-32c2.1-4.6,4-4.7,4-4.7s6.8,0,7.9,8.6
		c1.1,8.6,0.7,33.9-9.5,40.2c-10.2,6.3-33,13.9-33,13.9S132.4,130.5,133.6,127.7z"/>
	<path class="st9" d="M133.6,127.7c0,0-5.4-0.3-7.4,0c-2,0.3-5.6,3.3-7.7,4.6c-2.1,1.2-1.6,3-0.5,3c0,0,2.9,1.1,7.4,0
		c4.5-1.1,9.9-4.2,9.9-4.2S132.5,130.3,133.6,127.7z"/>
	<g>
		<path class="st13" d="M133.3,47.6l1.2,0.8c0.4,0.2,0.7,0.4,1,0.4c0.3,0,0.6-0.1,0.9-0.3c0.2-0.1,0.3-0.3,0.5-0.4
			c0.2-0.2,0.4-0.3,0.6-0.5c0,0.3-0.1,0.5-0.1,0.8c-0.1,0.2-0.2,0.5-0.4,0.7c-0.3,0.5-1,0.9-1.7,0.8c-0.7-0.1-1.2-0.5-1.6-0.9
			C133.5,48.6,133.3,48.1,133.3,47.6z"/>
	</g>
	<g>
		<path class="st13" d="M144.5,45.4c1.4,0.2,2.6,0.1,3.6-0.4c0.5-0.3,0.9-0.7,1.3-1.2l0.6-0.8c0.2-0.3,0.4-0.5,0.6-0.8
			c0,0.4-0.1,0.7-0.1,1.1c-0.1,0.3-0.2,0.7-0.4,1c-0.3,0.7-0.8,1.3-1.5,1.7c-0.7,0.4-1.5,0.5-2.3,0.4
			C145.7,46.3,145,45.9,144.5,45.4z"/>
	</g>
	<g>
		<path class="st13" d="M144.5,57.4c1-0.6,1.9-1.2,2.4-1.9c0.3-0.3,0.4-0.7,0.5-1.2c0.1-0.2,0.1-0.5,0.1-0.8c0-0.3,0-0.6,0.1-0.9
			c0.4,0.4,0.7,1,0.8,1.7c0.1,0.6-0.1,1.4-0.5,1.9c-0.4,0.5-1,0.9-1.6,1.1C145.7,57.5,145.1,57.6,144.5,57.4z"/>
	</g>
	<rect x="130.9" y="163.2" class="st5" width="2.4" height="55.5"/>
	<rect x="184.2" y="163.2" class="st5" width="2.4" height="55.5"/>
	<rect x="146.8" y="163.2" class="st5" width="2.4" height="26.9"/>
</g>
</svg>
