<?xml version="1.0" encoding="utf-8"?>
<!-- Generator: Adobe Illustrator 22.1.0, SVG Export Plug-In . SVG Version: 6.00 Build 0)  -->
<svg version="1.1" id="Camada_1" xmlns="http://www.w3.org/2000/svg" xmlns:xlink="http://www.w3.org/1999/xlink" x="0px" y="0px"
	 viewBox="0 0 256.3 237.9" style="enable-background:new 0 0 256.3 237.9;" xml:space="preserve">
<style type="text/css">
	.st0{fill:#1D262D;}
	.st1{fill:#E8AEA6;}
	.st2{fill:#332777;}
	.st3{fill:#1D184C;}
	.st4{fill:#F5D54F;}
	.st5{fill:#E2995F;}
	.st6{fill:#464391;}
	.st7{fill:#BC7D51;}
	.st8{fill:#8C72CC;}
	.st9{fill:#2D0A7E;}
</style>
<g>
	<path class="st0" d="M116.6,21.8c0,0-18.7,5.5-6,28.4c2.5,5.4-1.5,8.8,0.8,16.1c2.3,7.4,11,23.6,33.5,14.3
		c22.4-9.4,21.2-24.1,17.7-30.4c-3.5-6.3-4-7.4-3.4-18.4c0.6-11.1-8.5-29-26.3-26.6C114.9,7.7,116.6,21.8,116.6,21.8z"/>
	<ellipse class="st1" cx="140.1" cy="212.6" rx="65.7" ry="8.1"/>
	<path class="st2" d="M80.4,75.6l-10.8,8.6c-0.6,0.5-1.4,0.3-1.8-0.3L48.5,56.6c-0.4-0.6-0.3-1.3,0.2-1.7L63,43.3
		c0.6-0.5,1.4-0.3,1.9,0.3L84.1,71c0.4,0.5,0.3,1.3-0.2,1.7L80.4,75.6z"/>
	<path class="st3" d="M79.3,74.6l-9.9,7.9c-0.5,0.4-1.3,0.3-1.7-0.2L49.9,57.2c-0.4-0.5-0.3-1.2,0.2-1.6l13.2-10.6
		c0.5-0.4,1.3-0.3,1.7,0.2l17.7,25.3c0.4,0.5,0.3,1.2-0.2,1.6L79.3,74.6z"/>
	<path class="st4" d="M127.8,66.6c0,0-7.9-0.7-12.9,8c-5,8.8-6,9.4-6,9.4s5.6,5.8,10.2,5.2c0,0-0.4,4.9,2,11.8
		c2.4,6.9,2.9,5.1,2.9,5.1s10,3.7,17.3-0.3c0,0,1-8.1,6.9-18.1c0,0,1.7,5.2,1.2,7.8c0,0,6.4,0.8,9.7-2.2c0,0-1.6-28.3-22.2-28.1
		L127.8,66.6z"/>
	<path class="st3" d="M159.7,210.4c0,0,10.9,4.2,16.7,4.4c0,0,6.9-0.6-10.9-8.7c0,0-2.8,2.6-6.1,1.4L159.7,210.4z"/>
	<path class="st3" d="M136.6,210.4c0,0-10.9,4.2-16.7,4.4c0,0-6.9-0.6,10.9-8.7c0,0,2.8,2.6,6.1,1.4L136.6,210.4z"/>
	<path class="st5" d="M114.3,33.8c0,0-3.5,14.9,10.6,21.2c5.1,2.7,14.5,1.2,20.4-5.9c0,0,8.6-2.6,5.5-9c-2.2-3.7-7.3,0.2-7.3,0.2
		s-10.6-0.6-14.7-14.9C128.8,25.4,119.2,32.8,114.3,33.8z"/>
	<path class="st5" d="M127.8,66.6c0,0,1.6-3.1,0-10.6c0,0,3.3,0.4,7.4-0.4c0,0-0.3,7.8,1.6,9.8c0,0-2.7,12-9,11
		C124.9,75,127.8,66.6,127.8,66.6z"/>
	<path class="st2" d="M124,106.1c0,0-13.1,18.6-7.3,47.4c5.8,28.8,13.1,54.4,13.1,54.4s3.5,1.3,7.1,0c0,0-2.6-28.8,0-54.4
		c0,0-9.1-24.4-6.1-45.8C130.8,107.7,127.6,107.4,124,106.1z"/>
	<path class="st6" d="M141.2,105.9c0,0,13.6,13,14.4,39.7c0.8,26.7,11.5,61,11.5,61s-3.9,2.5-8.1,1.9c0,0-14.5-37.5-22.2-55
		c0,0-10.3-27-6.1-45.8C130.8,107.7,137,108.5,141.2,105.9z"/>
	<path class="st5" d="M111.9,86.5c0,0-8.3,11.7-15.1,1.8c-6.8-9.9-11.5-17.3-11.5-17.3s0.2-7.8-5.8-6.8c-6,1-5.6,4.9-3.9,5
		c1.7,0.1,3.8-1,4.8-0.6c1,0.4-1.3,2.8,0.1,6.9l-2.9,2.2c0,0,1.6,2.1,6.2,2.8c0,0,8.6,17.4,13.8,19.8c5.2,2.5,12.9,1.7,21.6-11.2
		C119.1,89.3,114.8,89,111.9,86.5z"/>
	<path class="st5" d="M150.8,95.8c0,0,1.4,30.1,1.6,36.5c0.1,6.4,6.8,7.8,9,5.9c2.2-2-1.7-3.7-2.9-3.8c-1.2-0.1,2.5-0.4,1.6-4.2
		c-0.9-3.8-3.1-4.2-2.6-7.7c0.5-3.5,2.2-15.7,1.6-29C159,93.4,156.2,95.7,150.8,95.8z"/>
	<path class="st7" d="M123,39.3c0,0-1.3,2.7-3,3.8c-1.7,1.1-0.1,3.5,1.1,3.3c1.2-0.2,1.2-0.2,1.2-0.2L123,39.3z"/>
	<g>
		<path class="st7" d="M126,38.1c1.1,0.6,2.2,1.1,3.3,1c0.5,0,1.1-0.1,1.7-0.3c0.3-0.1,0.5-0.2,0.8-0.3c0.3-0.1,0.6-0.3,0.9-0.4
			c-0.2,0.3-0.4,0.5-0.6,0.8c-0.3,0.2-0.5,0.5-0.8,0.6c-0.6,0.4-1.3,0.6-2,0.6c-0.7,0-1.4-0.2-2-0.5C126.8,39.1,126.3,38.6,126,38.1
			z"/>
	</g>
	<g>
		<path class="st7" d="M117.5,35.9c0.5,0.7,0.9,1.4,1.4,1.6c0.3,0.1,0.6,0.2,0.9,0.2c0.2,0,0.4,0,0.6,0c0.2,0,0.4,0,0.6,0
			c-0.1,0.2-0.3,0.3-0.5,0.5c-0.2,0.1-0.4,0.2-0.6,0.3c-0.4,0.2-1,0.2-1.5-0.1c-0.5-0.2-0.8-0.7-1-1.1
			C117.4,36.8,117.4,36.3,117.5,35.9z"/>
	</g>
	<g>
		<path class="st7" d="M121.6,48c1.5,0.4,2.8,0.8,4.2,0.8c0.7,0,1.4-0.1,2-0.3c0.7-0.2,1.3-0.6,1.9-1c-0.4,0.6-0.9,1.3-1.6,1.6
			c-0.7,0.4-1.5,0.6-2.3,0.6c-0.8,0-1.6-0.2-2.3-0.5C122.8,49,122.1,48.6,121.6,48z"/>
	</g>
	<path class="st1" d="M184.2,229.4c0,0.9-7,1.6-15.6,1.6c-8.6,0-15.6-0.7-15.6-1.6c0-0.9,7-1.6,15.6-1.6
		C177.2,227.7,184.2,228.4,184.2,229.4z"/>
	<path class="st1" d="M105.1,201.3c0,0.9-7,1.6-15.6,1.6c-8.6,0-15.6-0.7-15.6-1.6c0-0.9,7-1.6,15.6-1.6
		C98.1,199.6,105.1,200.4,105.1,201.3z"/>
	<g>
		<path class="st8" d="M96.5,201.7c0,0,6.4-10.3,0.5-15.9c-4.3-3.1-9.2,2.3-11.9-0.8c-2.7-3.1,9.7-13.3,5.7-18.5
			c-4-5.2-12-5.6-16.7-1.2c-4.6,4.4,2.8,29,8.7,36.3C82.8,201.7,90.4,202.6,96.5,201.7z"/>
		<g>
			<g>
				<path class="st9" d="M90,202.1c-2.4-2.6-4.5-5.6-6.3-8.7c-1.8-3.1-3.1-6.5-3.7-10.1c-0.3-1.8-0.3-3.6-0.1-5.4
					c0.3-1.8,0.6-3.6,1.1-5.3c0.5-1.7,1.1-3.4,1.9-5.1c0.8-1.6,1.8-3.2,3.1-4.3c-1.3,1.3-2.1,2.9-2.8,4.5c-0.7,1.6-1.3,3.3-1.7,5
					c-0.4,1.7-0.7,3.5-1,5.2c-0.2,1.7-0.2,3.5,0.1,5.3c0.5,3.5,1.8,6.8,3.5,10c0.8,1.6,1.7,3.1,2.7,4.6
					C87.8,199.3,88.9,200.7,90,202.1z"/>
			</g>
		</g>
	</g>
</g>
</svg>
